<svg xmlns="http://www.w3.org/2000/svg" viewBox="0 0 200 137" width="200" height="137"><g fill="#ff5722"><path d="M149.83 33.097l-7.215-.118-6.227-.103-16.537-.275.171 15.012.002.209h.003l29.66-.406.313-7.343-.17-6.976zm-20.739 2.069l.479.028.965 1.402 13.57-.06-.539-1.358.394.67-.277-.698.992 1.692-.131.002.015.024-.548.006.665 1.007-.133.002.018.024-.536.004.651 1.009-.133.002.018.024-.661.007.66 1.033-.548.007.665 1.009-.133.002.018.023-2.535.023-3.247.028-8.992.079-.442-1.863.127.014-.009-.04.097.011-.283-1.047.304.044-.28-1.097.129.023-.014-.05.16.028-.256-1.043.018.003-.362-.953.129.009-.015-.03zm-4.69.043c.128-.034.26-.06.398-.06 1.04 0 1.885 1.126 1.885 2.517 0 1.26-.695 2.3-1.602 2.482-.13.037-.263.057-.399.057-1.04 0-1.887-1.126-1.887-2.512 0-1.261.698-2.3 1.604-2.484zm.964 6.965c0 .4-.235.726-.531.75a.391.391 0 01-.152.033c-.313 0-.568-.34-.568-.757 0-.399.237-.724.531-.75a.457.457 0 01.154-.03c.312 0 .566.337.566.754zm23.151 4.59a.41.41 0 01-.147.031s-1.2.03-3.07.074c-2.112.048-5.083.115-8.133.173-1.47.028-2.96.057-4.379.079-4.724.078-8.692.11-8.715 0-.285 0-.755-.205-.76-.49-.008-.255.457-.48.762-.531a.999.999 0 01.224-.04l24.175-.244c.283.005.523.084.532.371.002.279-.217.553-.489.578zm-1.065-4.564c0-.417.211-.755.463-.755h.002a.289.289 0 01.115-.025c.257 0 .465.338.465.754s-.21.758-.465.758a.3.3 0 01-.117.025c-.252 0-.463-.34-.463-.757zm.722-2.032a.964.964 0 01-.258.037c-.852 0-1.536-1.126-1.536-2.512 0-1.312.61-2.385 1.393-2.504a.953.953 0 01.259-.04c.853 0 1.542 1.126 1.542 2.517 0 1.309-.614 2.384-1.4 2.502z"/><path d="M138.583 39.92l3.334-.013 1.987-.009-.28-.728-1.56.013-3.473.03-8.705.075.32.668zM141.874 40.223l-3.297.032-8.562.074.308.642 13.57-.057-.287-.703zM143.893 38.832l-.283-.704-1.337.011-3.67.033-8.588.076.308.642zM143.893 37.792l-.287-.704-1.817.018-3.173.03-8.594.085.3.628zM118.517 31.35l1.112.937v.049c.009.006.014.011.02.018l16.18.292 6.24.112 7.587.134v-.042l-9.68-6.624-4.49-11.776.077-8.59-1.268-.267c.099.14.163.343.163.571 0 .417-.21.755-.463.755a.267.267 0 01-.117.028c-.257 0-.463-.338-.463-.757 0-.336.134-.615.318-.716l-23.62-4.98c.109.155.174.363.174.593 0 .463-.265.838-.599.876a.498.498 0 01-.17.034c-.36 0-.652-.395-.652-.884 0-.357.158-.665.384-.803l-1.385-.294-.042 2.025 27.418 5.468-.069.34-.108-.022-.009.048-27.238-5.433-.161 7.869 3.745 14.84s4.839 4.201 7.116 6.2zm5.284-19.147a.835.835 0 01.406-.028l9.257 1.473c.564.088 1.183.606 1.374 1.144l3.6 10.24c.169.483-.062.866-.516.927a.906.906 0 01-.294.035l-1.832-.078-3.829-.164-3.791-.164c-.57-.024-1.174-.493-1.336-1.043l-3.478-11.51c-.134-.445.06-.772.44-.832zm-14.468-2.5a.596.596 0 01.288-.023l10.71 1.865c.372.066.773.417.89.78l3.877 12.395c.1.33-.07.595-.384.632a.599.599 0 01-.222.034L113.134 25c-.38-.013-.762-.33-.852-.7l-3.3-14.038c-.075-.308.08-.531.351-.56z"/><path d="M106.84 37.402a4.44 4.44 0 01.953-.118c3.761-.05 6.938 4.58 7.546 10.652l4.397-.061-.055-2.024-.358-13.036-8.52-6.967c-.04-.035-4.041-15.424-4.041-15.424-.003-.011-.035-1.653-.07-3.644l-.066-3.437-.016-.937-15.533 3.472-.043 3.317h-.117v.026l-.347-.002.03-2.337.017-1.257.117-.026v-.002l11.013-2.508 4.853-1.107L106.565 0 72.516 7.523l5.638 1.098L88.99 6.238l.074.34-.117.026v.003l-9.93 2.182 1.575.307 1.148.221.01.867v.05l-4.666-1.022-.809-.178-5.523-1.21-5.364-1.177-.026-.007-.12-.025-15.22 3.85-.022.29 15.412-3.858h.005l.113-.029.093.024 15.7 3.9.55.137-.375 17.57-.05-3.03-.067 3.055-.123-7.195-7.347 1.053-8.653 7.443 14.592-1.213-.727.076.61-.05L66.18 30.08l-1.408.152-.006-.058-.028.024v-.312l.026-15.062 16.318-3.897-.001-.083-16.113 3.404-1.728-.398-2.382-.546-.051 22.938-.951 9.648 6.68 1.114c.007-.33.024-.654.049-.974.086-1.068.28-2.08.565-3 .802-2.599 2.318-4.47 4.126-4.886a3.33 3.33 0 01.837-.118c3.09-.042 5.65 4.132 5.72 9.323 0 .13-.004.258-.007.386a4.084 4.084 0 011.637-.241c3.37.189 6.84.472 10.031.774l.101-3.072 1.06-32.6.116.004.001-.03.349.011-1.163 35.734c4.383.421 8.192.87 10.414 1.147.011-1.055.1-2.078.258-3.052.769-4.784 3.195-8.405 6.21-9.009zm-1.483-28.061l.038-.007c.025-.006.052-.015.078-.022l.048-.007a.737.737 0 01.827.569l3.388 16.268a.56.56 0 01-.483.694.61.61 0 01-.184.034l-3.644.127a.67.67 0 01-.696-.671l-.052-16.182a.843.843 0 01.68-.803zm-3.634 16.247a.727.727 0 01-.173.034l-8.034.542a.636.636 0 01-.689-.645l.052-11.964a.843.843 0 01.688-.799l.032-.004c.028-.01.056-.018.084-.023l7.72-1.176a.594.594 0 01.7.585l.244 12.717a.734.734 0 01-.624.733zm1.52 3.816l-.014-1.789.118.003v-.029l.923.016-.23 9.562-.058-2.481-.061 2.507-.176-7.795-.503.006zM119.74 47.69l.001.185.11-.003-.19-7.041.057 5.018zM114.202 52.482h35.205v-4.239l-34.003.566c.064.873-1.202 3.673-1.202 3.673z"/><path d="M72.156 39.366c-2.621 0-4.746 3.202-4.746 7.146 0 3.947 2.125 7.148 4.746 7.148 2.62 0 4.744-3.202 4.744-7.148 0-3.945-2.125-7.146-4.744-7.146zm0 12.708c-2.04 0-3.692-2.49-3.692-5.562 0-3.07 1.653-5.56 3.692-5.56s3.691 2.49 3.691 5.56c.001 3.071-1.651 5.562-3.691 5.562zM108.08 38.826c-3.384 0-6.124 3.769-6.124 8.418 0 4.648 2.74 8.417 6.123 8.417s6.122-3.77 6.122-8.417c0-4.648-2.738-8.418-6.122-8.418zm-.003 14.968c-2.63 0-4.763-2.933-4.763-6.552s2.132-6.55 4.763-6.55c2.633 0 4.766 2.932 4.766 6.55s-2.133 6.552-4.766 6.552z"/></g><path d="M.611 101.454c-.024 0-.066-.036-.126-.108s-.125-.21-.197-.413-.138-.498-.198-.881-.09-.887-.09-1.51h1.33L6.4 77.977c-.84 0-1.529.27-2.068.81s-.965 1.132-1.276 1.779c-.36.767-.623 1.63-.791 2.588H.899c0-.91.12-1.797.36-2.66s.634-1.624 1.186-2.283 1.27-1.192 2.157-1.6S6.579 76 7.873 76c.384 0 .702.018.953.054s.474.078.665.126c.192.072.36.132.504.18l-5.43 22.182h8.342c.096.048.191.192.287.431.072.192.144.486.216.881s.108.929.108 1.6H.61zM22.398 76c.384 0 .69.018.917.054s.401.078.521.126a3.2 3.2 0 01.324.18l-6.148 25.094h-3.236l5.753-23.477c-.791 0-1.433.27-1.924.81s-.869 1.132-1.132 1.779c-.312.767-.54 1.63-.683 2.588h-1.367c.072-1.318.372-2.504.9-3.559.215-.455.49-.899.826-1.33s.749-.815 1.24-1.15 1.067-.606 1.726-.81S21.535 76 22.398 76zm1.834 25.454c-.024 0-.066-.036-.126-.108s-.126-.21-.198-.413-.138-.498-.198-.881-.09-.887-.09-1.51h1.33l5.07-20.565c-.84 0-1.528.27-2.067.81s-.965 1.132-1.277 1.779c-.36.767-.623 1.63-.79 2.588h-1.367c0-.91.12-1.797.36-2.66s.635-1.624 1.186-2.283 1.27-1.192 2.157-1.6S30.2 76 31.494 76c.383 0 .7.018.953.054s.473.078.665.126c.191.072.36.132.503.18l-5.429 22.182h8.341c.096.048.192.192.288.431.072.192.144.486.215.881s.108.929.108 1.6H24.232zM61.55 87.433c.503.048 1.072.227 1.707.539s1.229.737 1.78 1.276 1.012 1.199 1.384 1.978.557 1.66.557 2.642c0 1.079-.21 2.08-.629 3.002s-1.025 1.726-1.816 2.409-1.755 1.216-2.894 1.6-2.426.575-3.865.575c-1.006 0-1.875-.162-2.606-.485s-1.264-.606-1.6-.845c-.48.455-1.03.79-1.654 1.006s-1.21.324-1.761.324c-1.055 0-1.864-.306-2.427-.917s-.977-1.288-1.24-2.031c-.312-.863-.492-1.858-.54-2.984h1.295c.096.767.24 1.462.431 2.085.168.527.396 1.007.683 1.438s.671.647 1.15.647c.264 0 .606-.12 1.025-.36s.75-.742.989-1.51c.216-.694.45-1.497.701-2.408l.773-2.894.791-3.128.755-3.11 1.726-7.334c.096-.048.203-.096.323-.144s.264-.09.432-.126.383-.053.647-.053c.383 0 .695.017.935.053s.419.078.539.126c.144.048.251.096.323.144l-.539 2.337-.557 2.48c-.204.935-.438 1.93-.701 2.985.839 0 1.558-.162 2.157-.486s1.096-.725 1.492-1.204.689-.989.88-1.528.288-1.037.288-1.492c0-1.438-.407-2.51-1.222-3.218s-1.905-1.06-3.272-1.06c-.67 0-1.27.096-1.797.287s-.995.45-1.402.773-.755.683-1.043 1.079-.54.809-.755 1.24c-.48.983-.815 2.11-1.007 3.38h-1.222c.12-1.582.467-2.996 1.043-4.243.24-.527.545-1.048.916-1.564s.821-.97 1.349-1.366 1.138-.719 1.833-.97S57.403 76 58.314 76c1.079 0 2.085.108 3.02.324s1.744.557 2.427 1.024 1.222 1.079 1.617 1.834.594 1.671.594 2.75c0 .647-.138 1.27-.414 1.87s-.629 1.144-1.06 1.635-.905.911-1.42 1.259-1.025.593-1.528.737zm-3.703 12.26c.886 0 1.683-.15 2.39-.45s1.295-.713 1.762-1.24.827-1.145 1.079-1.852.377-1.468.377-2.283c0-.695-.102-1.372-.306-2.031s-.539-1.24-1.006-1.744-1.103-.91-1.906-1.222-1.791-.468-2.966-.468a136.15 136.15 0 01-.827 3.344l-.809 3.092c-.251.958-.485 1.791-.7 2.498s-.396 1.229-.54 1.564c.264.12.701.282 1.312.486s1.325.305 2.14.305zm27.862 1.76l-3.523.001.216-8.377h-4.458L76.2 97.104c-.491 1.102-.821 1.785-.989 2.049-.383.743-.827 1.312-1.33 1.708s-1.043.593-1.618.593c-1.054 0-1.863-.306-2.427-.917s-.976-1.288-1.24-2.031c-.312-.863-.491-1.858-.54-2.984h1.295c.096.767.24 1.462.431 2.085.168.527.396 1.007.684 1.438s.67.647 1.15.647c.312 0 .641-.108.989-.323s.689-.707 1.024-1.474l.9-2.068 1.15-2.75h-1.726c0-.407.03-.737.09-.988s.138-.438.234-.558a.726.726 0 01.323-.287h1.87l2.139-5.106 2.031-4.817 2.085-4.961c.192-.048.396-.108.611-.18.192-.048.396-.09.612-.126S84.39 76 84.63 76c.263 0 .503.018.719.054s.407.078.575.126l.54.18zm-3.235-10.21l.251-9.742-1.941 4.727-2.085 5.016h3.775zm27.215 3.057a18.736 18.736 0 01-1.546 2.876c-.527.839-1.198 1.743-2.013 2.714s-1.786 1.875-2.912 2.714l-.935 3.56c-.24.815-.551 1.576-.935 2.283s-.827 1.318-1.33 1.833-1.073.923-1.708 1.222-1.312.45-2.031.45c-.767 0-1.312-.282-1.636-.845s-.485-1.24-.485-2.031.156-1.54.467-2.247.731-1.366 1.258-1.978 1.139-1.174 1.834-1.69 1.426-.976 2.193-1.384l.683-2.66c-.527.551-1.114.977-1.761 1.276s-1.546.45-2.697.45c-.743 0-1.48-.156-2.21-.468s-1.391-.79-1.978-1.438-1.06-1.456-1.42-2.426-.54-2.104-.54-3.398c0-2.445.312-4.71.935-6.795s1.456-3.894 2.499-5.429 2.24-2.732 3.595-3.595S99.79 76 101.276 76c.815 0 1.51.12 2.085.36s1.05.557 1.42.952.642.851.81 1.366.251 1.061.251 1.636c0 .815-.132 1.54-.395 2.175s-.552 1.193-.863 1.672a8.202 8.202 0 01-1.259 1.438l-1.042-.647a9.07 9.07 0 00.719-1.258c.192-.384.365-.833.521-1.349s.234-1.072.234-1.671c0-.911-.186-1.624-.557-2.14s-.977-.772-1.816-.772c-.647 0-1.288.221-1.923.665s-1.24 1.036-1.816 1.78-1.114 1.617-1.618 2.624-.94 2.067-1.312 3.182-.665 2.264-.88 3.45-.324 2.344-.324 3.47c0 1.103.09 2.044.27 2.822s.425 1.415.736 1.906.665.85 1.06 1.078.798.342 1.205.342c.935 0 1.738-.324 2.409-.97s1.234-1.367 1.69-2.158a17.42 17.42 0 001.294-3.164 1.39 1.39 0 01.252-.18c.12-.047.287-.09.503-.125s.503-.054.863-.054a5.352 5.352 0 011.402.18c.192.072.36.132.503.18l-1.87 7.406c.744-.767 1.397-1.522 1.96-2.265s1.037-1.409 1.42-1.996.677-1.072.881-1.456.33-.611.378-.683zm-10.282 9.598c-1.007.767-1.864 1.606-2.57 2.517s-1.061 1.798-1.061 2.66c0 .456.078.773.233.953s.342.27.558.27c.431 0 .785-.264 1.06-.791s.545-1.222.81-2.085zM131.008 76c.384 0 .69.018.917.054s.402.078.522.126a3.2 3.2 0 01.323.18l-6.148 25.094h-3.235l2.876-11.756h-6.795l-.827 3.307c-.263 1.055-.515 2.008-.755 2.858s-.455 1.564-.647 2.14-.336.958-.431 1.15c-.192.384-.444.72-.755 1.007s-.66.527-1.043.719-.779.335-1.186.431-.791.144-1.15.144c-1.055 0-1.864-.306-2.428-.917s-.976-1.288-1.24-2.031c-.312-.863-.491-1.858-.54-2.984h1.295c.096.767.24 1.462.431 2.085.168.527.396 1.007.684 1.438s.67.647 1.15.647c.336 0 .689-.143 1.06-.431s.69-.767.953-1.438c.336-.91.683-2.085 1.043-3.523l1.15-4.602h-1.725c0-.408.03-.737.09-.989s.125-.437.197-.557a.726.726 0 01.324-.288h1.582l.7-2.912.63-2.732c.192-.863.377-1.654.557-2.373s.33-1.342.45-1.87c-.911 0-1.636.27-2.176.81s-.952 1.132-1.24 1.779c-.335.767-.575 1.63-.719 2.588h-1.366c0-.838.162-1.683.485-2.534s.791-1.618 1.402-2.301 1.367-1.24 2.265-1.672 1.936-.647 3.11-.647c.384 0 .69.018.917.054s.413.078.557.126l.36.18-.827 3.595-.881 3.685-.989 4.224h6.795l2.804-11.504.36-.18c.12-.048.27-.09.45-.126s.4-.054.664-.054zm13.446 0c1.079 0 2.23.162 3.452.485s2.349.857 3.38 1.6 1.887 1.72 2.57 2.93 1.024 2.69 1.024 4.44c0 1.942-.27 3.865-.808 5.77s-1.313 3.62-2.32 5.142-2.228 2.75-3.666 3.685-3.044 1.402-4.818 1.402c-1.007 0-1.803-.156-2.39-.467s-1.001-.588-1.241-.827c-.48.431-1.025.755-1.636.97s-1.192.324-1.744.324c-1.054 0-1.863-.306-2.426-.917s-.977-1.288-1.24-2.031c-.312-.863-.492-1.858-.54-2.984h1.294c.096.767.24 1.462.432 2.085.168.527.395 1.007.683 1.438s.671.647 1.15.647c.264 0 .605-.12 1.025-.36s.749-.742.989-1.51c.215-.694.449-1.497.7-2.408l.774-2.894.79-3.128.756-3.11 1.725-7.334c.096-.048.204-.096.324-.144s.263-.09.431-.126.384-.053.647-.053c.384 0 .695.018.935.053s.42.078.54.126c.143.048.251.096.323.144l-2.085 9.024-.863 3.505-.827 3.236c-.264.995-.51 1.87-.737 2.624s-.413 1.289-.557 1.6c.192.12.51.276.953.468s1.048.287 1.815.287 1.504-.215 2.211-.647 1.354-1.007 1.942-1.726 1.12-1.557 1.6-2.516.892-1.978 1.24-3.056.61-2.175.79-3.29.27-2.187.27-3.217c0-1.175-.191-2.23-.575-3.164s-.905-1.72-1.564-2.355-1.426-1.12-2.3-1.456-1.792-.503-2.751-.503c-.695 0-1.312.096-1.852.287s-1.012.45-1.42.773-.755.683-1.042 1.079-.54.809-.755 1.24c-.48.983-.791 2.11-.935 3.38h-1.222c.024-1.582.311-2.996.862-4.243.216-.527.504-1.048.863-1.564s.81-.97 1.348-1.366 1.175-.719 1.906-.97 1.588-.378 2.57-.378zm28.438 25.454h-3.523l.216-8.377h-4.458l-1.744 4.027c-.491 1.102-.82 1.785-.989 2.049-.383.743-.827 1.312-1.33 1.708s-1.042.593-1.618.593c-1.054 0-1.863-.306-2.426-.917s-.977-1.288-1.24-2.031c-.312-.863-.492-1.858-.54-2.984h1.294c.096.767.24 1.462.432 2.085.167.527.395 1.007.683 1.438s.67.647 1.15.647c.312 0 .641-.108.989-.323s.689-.707 1.025-1.474l.898-2.068 1.15-2.75h-1.725c0-.407.03-.737.09-.988s.138-.438.234-.558a.726.726 0 01.323-.287h1.87l2.139-5.106 2.031-4.817 2.085-4.961c.192-.048.396-.108.612-.18.191-.048.395-.09.61-.126s.444-.054.684-.054c.263 0 .503.018.719.054s.407.078.575.126l.54.18zm-3.235-10.21l.251-9.743-1.941 4.727-2.085 5.016h3.775zM189.574 76c1.079 0 2.229.162 3.451.485s2.35.857 3.38 1.6 1.887 1.72 2.57 2.93 1.025 2.69 1.025 4.44c0 1.942-.27 3.865-.809 5.77s-1.312 3.62-2.319 5.142-2.229 2.75-3.667 3.685-3.044 1.402-4.817 1.402c-1.007 0-1.804-.156-2.391-.467s-1-.588-1.24-.827c-.48.431-1.025.755-1.636.97s-1.193.324-1.744.324c-1.055 0-1.864-.306-2.427-.917s-.976-1.288-1.24-2.031c-.312-.863-.491-1.858-.54-2.984h1.295c.096.767.24 1.462.431 2.085.168.527.396 1.007.683 1.438s.671.647 1.15.647c.264 0 .606-.12 1.025-.36s.75-.742.99-1.51c.215-.694.449-1.497.7-2.408l.773-2.894.791-3.128.755-3.11 1.726-7.334c.096-.048.204-.096.323-.144s.264-.09.432-.126.383-.053.647-.053c.383 0 .695.018.935.053s.42.078.539.126c.144.048.252.096.324.144l-2.086 9.024-.862 3.505-.827 3.236c-.264.995-.51 1.87-.737 2.624s-.414 1.289-.558 1.6c.192.12.51.276.953.468s1.049.287 1.816.287 1.504-.215 2.21-.647 1.355-1.007 1.942-1.726 1.12-1.557 1.6-2.516.893-1.978 1.24-3.056.611-2.175.791-3.29.27-2.187.27-3.217c0-1.175-.192-2.23-.575-3.164s-.905-1.72-1.564-2.355-1.426-1.12-2.301-1.456-1.792-.503-2.75-.503c-.696 0-1.313.096-1.852.287s-1.013.45-1.42.773-.755.683-1.043 1.079-.539.809-.755 1.24c-.48.983-.79 2.11-.935 3.38h-1.222c.024-1.582.312-2.996.863-4.243.216-.527.503-1.048.863-1.564s.809-.97 1.348-1.366 1.174-.719 1.905-.97 1.588-.378 2.571-.378zM20 135.918v-13.722h1.764v13.722H20zm17.551-8.763c0 2.216-1.039 4.117-3.175 4.744l2.96 4.019h-2.118l-2.803-3.803h-3.077v3.803h-1.765v-13.722h5.176c3.234 0 4.802 2.235 4.802 4.96zm-8.213-3.312v6.606h3.332c2.215 0 3.117-1.627 3.117-3.294s-.902-3.312-3.117-3.312h-3.332zm22.451 12.075l-1.195-2.784h-6.116l-1.196 2.784H41.4L47.438 122h.196l6.037 13.918H51.79zm-6.606-4.43h4.705l-2.352-5.43zm26.47-2.431a7.048 7.048 0 01-3.45 6.096l1.569 1.902h-1.94l-1.04-1.274a7.219 7.219 0 01-2.176.333c-3.92 0-7.037-3.137-7.037-7.057S60.696 122 64.616 122s7.038 3.136 7.038 7.057zm-7.037 5.371c.353 0 .686-.04 1-.098l-1.607-1.96h1.901l1.196 1.45c1.647-.882 2.725-2.666 2.725-4.763 0-3.038-2.235-5.371-5.215-5.371-2.999 0-5.233 2.333-5.233 5.37s2.234 5.372 5.233 5.372zm12.318 1.49v-13.722h1.764v13.722h-1.764zm16.225-6.861c0-3.96 3.117-7.057 7.037-7.057 1.647 0 3.215.549 4.607 1.607l-.882 1.373c-1.157-.883-2.353-1.314-3.725-1.314-2.96 0-5.273 2.372-5.273 5.39s2.333 5.392 5.273 5.392c1.49 0 2.764-.47 3.725-1.392l.901 1.352c-1.196 1.079-2.881 1.706-4.626 1.706-3.92 0-7.037-3.117-7.037-7.057zm16.57 1.43v-8.291h1.765v8.155c0 2.646 1.529 3.999 3.685 3.999s3.705-1.353 3.705-4v-8.154h1.745v8.292c0 3.568-2.039 5.626-5.45 5.626-3.391 0-5.45-2.058-5.45-5.626zm16.591 5.43v-13.721h1.765v13.722h-1.765zm6.81-1.43c.862.804 2.646 1.627 4.43 1.627 2.744 0 4.488-1.412 4.488-3.627 0-1.803-.862-2.862-3.842-4.547-2.274-1.314-2.822-1.745-2.822-2.608 0-.92.862-1.646 2.313-1.646.843 0 1.96.372 2.607.784l.94-1.411c-.92-.608-2.371-1.059-3.528-1.059-2.528 0-4.214 1.45-4.214 3.352 0 1.686.843 2.529 3.43 3.94 2.294 1.255 3.235 2.176 3.235 3.176 0 1.176-1.02 1.882-2.608 1.882-1.372 0-2.744-.647-3.43-1.275zm13.963 1.43v-13.721h1.764v13.722h-1.764zm16.983-13.721h1.764v13.918h-.216l-9.213-9.782v9.586h-1.744V122h.196l9.213 9.782v-9.586zm15.806 12.036l.118 1.686h-8.35v-13.722h7.958l.137 1.686h-6.331v3.352h4.292v1.686h-4.292v5.312h6.468z" fill="#e1e3e5"/></svg>